<svg width="139" height="153" viewBox="0 0 139 153" fill="none" xmlns="http://www.w3.org/2000/svg">
<g filter="url(#filter0_d_164_11)">
<path d="M20 100.75L20 44.25L69.4983 16L119 44.25L119 100.75L69.4983 129L20 100.75Z" fill="white"/>
</g>
<path d="M87.3022 53.4614H47.4616C46.1172 53.4614 45.0234 54.5551 45.0234 55.8996V82.46C45.0234 83.8044 46.1172 84.8982 47.4616 84.8982H61.5203L60.8848 89.982H59.9118C59.4821 89.982 59.1336 90.3304 59.1336 90.7602C59.1336 91.1899 59.482 91.5383 59.9118 91.5383H64.0618C64.4916 91.5383 64.84 91.19 64.84 90.7602C64.84 90.3305 64.4917 89.982 64.0618 89.982H62.4533L63.0888 84.8982H64.0618C64.4916 84.8982 64.84 84.5498 64.84 84.12C64.84 83.6903 64.4917 83.3418 64.0618 83.3418H47.4616C46.9753 83.3418 46.5797 82.9462 46.5797 82.4599V79.918H64.0618C64.4916 79.918 64.84 79.5696 64.84 79.1398C64.84 78.71 64.4917 78.3617 64.0618 78.3617H46.5797V55.8996C46.5797 55.4133 46.9753 55.0177 47.4616 55.0177H87.3022C87.7885 55.0177 88.1841 55.4133 88.1841 55.8996V72.4998C88.1841 72.9295 88.5325 73.278 88.9623 73.278C89.392 73.278 89.7404 72.9296 89.7404 72.4998V55.8996C89.7403 54.5551 88.6466 53.4614 87.3022 53.4614Z" fill="#333333" stroke="black" stroke-width="0.3"/>
<path d="M80.6599 68.4014H69.0397C67.6953 68.4014 66.6016 69.4951 66.6016 70.8395V89.0998C66.6016 90.4442 67.6953 91.5379 69.0397 91.5379H80.6599C82.0043 91.5379 83.0981 90.4442 83.0981 89.0998V70.8395C83.0981 69.4951 82.0043 68.4014 80.6599 68.4014ZM81.5418 89.0998C81.5418 89.5861 81.1462 89.9817 80.6599 89.9817H69.0397C68.5534 89.9817 68.1578 89.5861 68.1578 89.0998V88.2179H81.5417V89.0998H81.5418ZM81.5418 86.6616H68.1578V73.2777H81.5417V86.6616H81.5418ZM81.5418 71.7214H68.1578V70.8394C68.1578 70.3531 68.5534 69.9575 69.0397 69.9575H80.6599C81.1462 69.9575 81.5418 70.3531 81.5418 70.8394V71.7214V71.7214Z" fill="#333333" stroke="black" stroke-width="0.3"/>
<path d="M92.2796 75.0396H87.2995C85.9551 75.0396 84.8613 76.1333 84.8613 77.4777V89.0979C84.8613 90.4423 85.9551 91.536 87.2995 91.536H92.2796C93.624 91.536 94.7177 90.4423 94.7177 89.0979V77.4777C94.7177 76.1333 93.624 75.0396 92.2796 75.0396ZM93.1615 89.0979C93.1615 89.5842 92.7659 89.9798 92.2796 89.9798H87.2995C86.8132 89.9798 86.4176 89.5842 86.4176 89.0979V88.216H93.1614V89.0979H93.1615ZM93.1615 86.6597H86.4177V79.9159H93.1615V86.6597ZM93.1615 78.3596H86.4177V77.4777C86.4177 76.9914 86.8133 76.5958 87.2996 76.5958H92.2797C92.766 76.5958 93.1616 76.9914 93.1616 77.4777V78.3596H93.1615Z" fill="#333333" stroke="black" stroke-width="0.3"/>
<defs>
<filter id="filter0_d_164_11" x="0" y="0" width="139" height="153" filterUnits="userSpaceOnUse" color-interpolation-filters="sRGB">
<feFlood flood-opacity="0" result="BackgroundImageFix"/>
<feColorMatrix in="SourceAlpha" type="matrix" values="0 0 0 0 0 0 0 0 0 0 0 0 0 0 0 0 0 0 127 0" result="hardAlpha"/>
<feOffset dy="4"/>
<feGaussianBlur stdDeviation="10"/>
<feComposite in2="hardAlpha" operator="out"/>
<feColorMatrix type="matrix" values="0 0 0 0 0 0 0 0 0 0 0 0 0 0 0 0 0 0 0.2 0"/>
<feBlend mode="normal" in2="BackgroundImageFix" result="effect1_dropShadow_164_11"/>
<feBlend mode="normal" in="SourceGraphic" in2="effect1_dropShadow_164_11" result="shape"/>
</filter>
</defs>
</svg>
