<svg width="70" height="80" viewBox="0 0 70 80" fill="none" xmlns="http://www.w3.org/2000/svg">
<path d="M-2.62268e-06 60L-8.74228e-07 20L34.9988 1.52985e-06L70 20L70 60L34.9988 80L-2.62268e-06 60Z" fill="#E31F23"/>
<path d="M51.5643 48.9047H36.302V42.1467L38.6102 39.3769C38.7622 39.1951 38.8453 38.9655 38.8453 38.7284V36.1817H41.3919C41.9519 36.1817 42.4051 35.7278 42.4051 35.1685V33.1258C42.4051 32.5662 41.9515 32.1125 41.3919 32.1125H29.1856C28.6261 32.1125 28.1724 32.5662 28.1724 33.1258V35.1685C28.1724 35.7278 28.6256 36.1817 29.1856 36.1817H31.7323V38.7284C31.7323 38.9655 31.8153 39.1951 31.9673 39.3769L34.2755 42.1467V48.9047H19.0132C18.4537 48.9047 18 49.3583 18 49.9179V53.9868C18 54.5464 18.4537 55 19.0132 55H51.5643C52.1239 55 52.5776 54.5464 52.5776 53.9868V49.9179C52.5776 49.3583 52.1239 48.9047 51.5643 48.9047V48.9047Z" fill="white"/>
<path d="M40.6756 41.0893L38.1581 43.6068C37.7624 44.0025 37.7624 44.6441 38.1581 45.0398C38.5537 45.4355 39.1953 45.4355 39.591 45.0398L42.1086 42.5222C42.5043 42.1265 42.5043 41.485 42.1086 41.0893C41.7128 40.6935 41.0713 40.6935 40.6756 41.0893Z" fill="white"/>
<path d="M45.2275 43.0982L42.71 45.6157C42.3143 46.0114 42.3143 46.6529 42.71 47.0486C43.1056 47.4443 43.7472 47.4444 44.1429 47.0486L46.6604 44.5311C47.0561 44.1354 47.0561 43.4939 46.6604 43.0982C46.2648 42.7025 45.6232 42.7025 45.2275 43.0982Z" fill="white"/>
<path d="M31.7029 45.3365C32.5975 45.3365 33.0594 44.2469 32.4193 43.6068L29.9018 41.0893C29.5062 40.6936 28.8646 40.6936 28.4689 41.0893C28.0732 41.485 28.0732 42.1265 28.4689 42.5222L30.9864 45.0397C31.1843 45.2375 31.4436 45.3365 31.7029 45.3365Z" fill="white"/>
<path d="M23.917 43.0982C23.5213 43.4939 23.5213 44.1354 23.917 44.5311L26.4345 47.0486C26.8302 47.4443 27.4718 47.4444 27.8675 47.0486C28.2632 46.6529 28.2632 46.0114 27.8675 45.6157L25.35 43.0982C24.9542 42.7025 24.3127 42.7025 23.917 43.0982Z" fill="white"/>
<path d="M20.0305 27.0265H25.1205V29.0728C25.1205 29.6324 25.5741 30.0861 26.1337 30.0861H44.4438C45.0033 30.0861 45.457 29.6324 45.457 29.0728V27.0265H50.547C51.1066 27.0265 51.5603 26.5728 51.5603 26.0132C51.5603 25.4537 51.1066 25 50.547 25H20.0305C19.4709 25 19.0172 25.4537 19.0172 26.0132C19.0172 26.5728 19.4709 27.0265 20.0305 27.0265V27.0265Z" fill="white"/>
</svg>
