<svg width="70" height="80" viewBox="0 0 70 80" fill="none" xmlns="http://www.w3.org/2000/svg">
<path d="M-2.62268e-06 60L-8.74228e-07 20L34.9988 1.52985e-06L70 20L70 60L34.9988 80L-2.62268e-06 60Z" fill="#E31F23"/>
<path d="M40.7267 53.1966C41.1432 53.1966 41.4808 52.859 41.4808 52.4426C41.4808 52.0261 41.1432 51.6885 40.7267 51.6885C40.3103 51.6885 39.9727 52.0261 39.9727 52.4426C39.9727 52.859 40.3103 53.1966 40.7267 53.1966Z" fill="white"/>
<path d="M34.6955 40.7538C35.1119 40.7538 35.4496 40.4161 35.4496 39.9997C35.4496 39.5832 35.1119 39.2456 34.6955 39.2456C34.279 39.2456 33.9414 39.5832 33.9414 39.9997C33.9414 40.4161 34.279 40.7538 34.6955 40.7538Z" fill="white"/>
<path d="M33.1877 37.7381C33.6041 37.7381 33.9417 37.4005 33.9417 36.9841C33.9417 36.5676 33.6041 36.23 33.1877 36.23C32.7712 36.23 32.4336 36.5676 32.4336 36.9841C32.4336 37.4005 32.7712 37.7381 33.1877 37.7381Z" fill="white"/>
<path d="M36.2033 37.7381C36.6198 37.7381 36.9574 37.4005 36.9574 36.9841C36.9574 36.5676 36.6198 36.23 36.2033 36.23C35.7868 36.23 35.4492 36.5676 35.4492 36.9841C35.4492 37.4005 35.7868 37.7381 36.2033 37.7381Z" fill="white"/>
<path d="M33.1877 34.7215C33.6041 34.7215 33.9417 34.3839 33.9417 33.9675C33.9417 33.551 33.6041 33.2134 33.1877 33.2134C32.7712 33.2134 32.4336 33.551 32.4336 33.9675C32.4336 34.3839 32.7712 34.7215 33.1877 34.7215Z" fill="white"/>
<path d="M21.801 30.6498C22.2174 30.6498 22.555 30.3121 22.555 29.8957C22.555 29.4792 22.2174 29.1416 21.801 29.1416C21.3845 29.1416 21.0469 29.4792 21.0469 29.8957C21.0469 30.3121 21.3845 30.6498 21.801 30.6498Z" fill="white"/>
<path d="M20.8947 44.2225C21.3112 44.2225 21.6488 43.8849 21.6488 43.4684C21.6488 43.052 21.3112 42.7144 20.8947 42.7144C20.4782 42.7144 20.1406 43.052 20.1406 43.4684C20.1406 43.8849 20.4782 44.2225 20.8947 44.2225Z" fill="white"/>
<path d="M23.9865 44.6756C24.403 44.6756 24.7406 44.338 24.7406 43.9216C24.7406 43.5051 24.403 43.1675 23.9865 43.1675C23.57 43.1675 23.2324 43.5051 23.2324 43.9216C23.2324 44.338 23.57 44.6756 23.9865 44.6756Z" fill="white"/>
<path d="M18.7834 29.8954C19.1998 29.8954 19.5375 29.5577 19.5375 29.1413C19.5375 28.7248 19.1998 28.3872 18.7834 28.3872C18.3669 28.3872 18.0293 28.7248 18.0293 29.1413C18.0293 29.5577 18.3669 29.8954 18.7834 29.8954Z" fill="white"/>
<path d="M24.8166 29.8954C25.233 29.8954 25.5707 29.5577 25.5707 29.1413C25.5707 28.7248 25.233 28.3872 24.8166 28.3872C24.4001 28.3872 24.0625 28.7248 24.0625 29.1413C24.0625 29.5577 24.4001 29.8954 24.8166 29.8954Z" fill="white"/>
<path d="M17.7287 43.5438C18.1452 43.5438 18.4828 43.2062 18.4828 42.7897C18.4828 42.3733 18.1452 42.0356 17.7287 42.0356C17.3122 42.0356 16.9746 42.3733 16.9746 42.7897C16.9746 43.2062 17.3122 43.5438 17.7287 43.5438Z" fill="white"/>
<path d="M19.9142 50.1043C20.3307 50.1043 20.6683 49.7667 20.6683 49.3503C20.6683 48.9338 20.3307 48.5962 19.9142 48.5962C19.4978 48.5962 19.1602 48.9338 19.1602 49.3503C19.1602 49.7667 19.4978 50.1043 19.9142 50.1043Z" fill="white"/>
<path d="M22.9318 51.6131C23.3483 51.6131 23.6859 51.2755 23.6859 50.8591C23.6859 50.4426 23.3483 50.105 22.9318 50.105C22.5153 50.105 22.1777 50.4426 22.1777 50.8591C22.1777 51.2755 22.5153 51.6131 22.9318 51.6131Z" fill="white"/>
<path d="M16.8986 50.7835C17.3151 50.7835 17.6527 50.4459 17.6527 50.0295C17.6527 49.613 17.3151 49.2754 16.8986 49.2754C16.4821 49.2754 16.1445 49.613 16.1445 50.0295C16.1445 50.4459 16.4821 50.7835 16.8986 50.7835Z" fill="white"/>
<path d="M16.8986 37.2098C17.3151 37.2098 17.6527 36.8722 17.6527 36.4557C17.6527 36.0393 17.3151 35.7017 16.8986 35.7017C16.4821 35.7017 16.1445 36.0393 16.1445 36.4557C16.1445 36.8722 16.4821 37.2098 16.8986 37.2098Z" fill="white"/>
<path d="M22.9318 37.5116C23.3483 37.5116 23.6859 37.174 23.6859 36.7575C23.6859 36.341 23.3483 36.0034 22.9318 36.0034C22.5153 36.0034 22.1777 36.341 22.1777 36.7575C22.1777 37.174 22.5153 37.5116 22.9318 37.5116Z" fill="white"/>
<path d="M19.9904 36.6063C20.4069 36.6063 20.7445 36.2687 20.7445 35.8522C20.7445 35.4358 20.4069 35.0981 19.9904 35.0981C19.5739 35.0981 19.2363 35.4358 19.2363 35.8522C19.2363 36.2687 19.5739 36.6063 19.9904 36.6063Z" fill="white"/>
<path d="M36.2033 34.7215C36.6198 34.7215 36.9574 34.3839 36.9574 33.9675C36.9574 33.551 36.6198 33.2134 36.2033 33.2134C35.7868 33.2134 35.4492 33.551 35.4492 33.9675C35.4492 34.3839 35.7868 34.7215 36.2033 34.7215Z" fill="white"/>
<path d="M34.6955 46.787C35.1119 46.787 35.4496 46.4494 35.4496 46.0329C35.4496 45.6164 35.1119 45.2788 34.6955 45.2788C34.279 45.2788 33.9414 45.6164 33.9414 46.0329C33.9414 46.4494 34.279 46.787 34.6955 46.787Z" fill="white"/>
<path d="M33.1877 43.7704C33.6041 43.7704 33.9417 43.4327 33.9417 43.0163C33.9417 42.5998 33.6041 42.2622 33.1877 42.2622C32.7712 42.2622 32.4336 42.5998 32.4336 43.0163C32.4336 43.4327 32.7712 43.7704 33.1877 43.7704Z" fill="white"/>
<path d="M36.2033 43.7704C36.6198 43.7704 36.9574 43.4327 36.9574 43.0163C36.9574 42.5998 36.6198 42.2622 36.2033 42.2622C35.7868 42.2622 35.4492 42.5998 35.4492 43.0163C35.4492 43.4327 35.7868 43.7704 36.2033 43.7704Z" fill="white"/>
<path d="M50.8269 43.0971C50.9741 43.2444 51.167 43.318 51.3601 43.318C51.5531 43.318 51.746 43.2444 51.8933 43.0971L53.7785 41.2119C54.073 40.9174 54.073 40.4399 53.7785 40.1454L51.8933 38.2602C51.5988 37.9657 51.1214 37.9657 50.8268 38.2602C50.5323 38.5547 50.5323 39.0322 50.8268 39.3267L51.4247 39.9246H50.4928C49.1982 39.9246 48.1128 39.3442 48.1041 39.3394C48.0468 39.3079 46.6822 38.5673 44.9881 38.5673C44.2252 38.5673 43.5298 38.7175 42.9898 38.8855V33.698C43.4205 33.5254 44.1614 33.2887 44.9881 33.2887C46.2827 33.2887 47.3681 33.8691 47.3768 33.8739C47.4341 33.9054 48.7987 34.6461 50.4928 34.6461H51.4246L50.8267 35.244C50.5323 35.5384 50.5323 36.0159 50.8267 36.3105C50.9742 36.4577 51.167 36.5313 51.3601 36.5313C51.5531 36.5313 51.746 36.4577 51.8933 36.3104L53.7785 34.4252C54.073 34.1307 54.073 33.6533 53.7785 33.3587L51.8933 31.4735C51.5988 31.1791 51.1214 31.1791 50.8268 31.4735C50.5323 31.768 50.5323 32.2455 50.8268 32.54L51.4247 33.1379H50.4929C49.1983 33.1379 48.1129 32.5575 48.1042 32.5528C48.0469 32.5212 46.6822 31.7806 44.9881 31.7806C44.2253 31.7806 43.5298 31.9308 42.9898 32.0988V31.7052C42.9898 31.2889 42.652 30.9511 42.2358 30.9511H41.4817V23.4103C41.4817 23.212 41.401 23.0175 41.2607 22.8772C41.1205 22.7369 40.9259 22.6562 40.7276 22.6562H28.6624C28.4641 22.6562 28.2695 22.7369 28.1292 22.8772C27.989 23.0175 27.9083 23.212 27.9083 23.4103V30.9511H27.1542C26.738 30.9511 26.4001 31.2889 26.4001 31.7052V32.7287C25.9694 32.9013 25.2285 33.1379 24.4018 33.1379C23.1072 33.1379 22.0218 32.5575 22.0132 32.5528C21.9558 32.5212 20.5912 31.7806 18.8971 31.7806C17.203 31.7806 15.8383 32.5212 15.781 32.5528C15.5316 32.6901 15.3904 32.9475 15.3906 33.2133C15.3908 33.3355 15.4213 33.4595 15.4841 33.5743C15.6833 33.939 16.1412 34.0732 16.5064 33.875C16.5171 33.8691 17.6025 33.2887 18.8971 33.2887C20.1917 33.2887 21.2771 33.8691 21.2858 33.8739C21.3431 33.9054 22.7077 34.6461 24.4018 34.6461C25.1647 34.6461 25.8602 34.4959 26.4001 34.3279V39.5154C25.9694 39.688 25.2285 39.9246 24.4018 39.9246C23.1072 39.9246 22.0218 39.3442 22.0132 39.3394C21.9558 39.3079 20.5912 38.5673 18.8971 38.5673C17.203 38.5673 15.8383 39.3079 15.781 39.3394C15.5316 39.4768 15.3904 39.7342 15.3906 40C15.3908 40.1222 15.4213 40.2461 15.4841 40.361C15.6833 40.7257 16.1412 40.8599 16.5064 40.6617C16.5171 40.6558 17.6025 40.0754 18.8971 40.0754C20.1917 40.0754 21.2771 40.6558 21.2858 40.6606C21.3431 40.6921 22.7077 41.4328 24.4018 41.4328C25.1647 41.4328 25.8602 41.2825 26.4001 41.1145V46.3021C25.9694 46.4747 25.2285 46.7113 24.4018 46.7113C23.1072 46.7113 22.0218 46.1309 22.0132 46.1261C21.9558 46.0946 20.5912 45.354 18.8971 45.354C17.203 45.354 15.8383 46.0946 15.781 46.1261C15.5338 46.2622 15.3906 46.5055 15.3906 46.7796C15.3906 46.9041 15.4201 47.0306 15.4841 47.1478C15.6833 47.5124 16.1412 47.6466 16.5064 47.4485C16.5171 47.4425 17.6025 46.8621 18.8971 46.8621C20.1917 46.8621 21.2771 47.4425 21.2858 47.4473C21.3431 47.4788 22.7077 48.2195 24.4018 48.2195C25.1647 48.2195 25.8602 48.0692 26.4001 47.9012V48.2949C26.4001 48.7111 26.738 49.0489 27.1542 49.0489H27.9083V56.5897C27.9083 56.788 27.989 56.9826 28.1292 57.1228C28.2695 57.2631 28.4641 57.3438 28.6624 57.3438H40.7276C40.9259 57.3438 41.1205 57.2631 41.2607 57.1228C41.401 56.9826 41.4817 56.788 41.4817 56.5897V55.8356C41.4817 55.4201 41.1431 55.0816 40.7276 55.0816C40.3121 55.0816 39.9735 55.4201 39.9735 55.8356H29.4165V49.0489H30.1705C30.5868 49.0489 30.9246 48.7111 30.9246 48.2949V31.7052C30.9246 31.2889 30.5868 30.9511 30.1705 30.9511H29.4165V24.1644H39.9735V30.9511H39.2195C38.8032 30.9511 38.4654 31.2889 38.4654 31.7052V48.2949C38.4654 48.7111 38.8032 49.0489 39.2195 49.0489H39.9735C39.9735 49.4644 40.3121 49.803 40.7276 49.803C41.1439 49.803 41.4817 49.4644 41.4817 49.0489H42.2358C42.652 49.0489 42.9898 48.7111 42.9898 48.2949V47.2714C43.4206 47.0987 44.1614 46.8621 44.9881 46.8621C46.2827 46.8621 47.3682 47.4425 47.3768 47.4473C47.4341 47.4788 48.7988 48.2195 50.4929 48.2195H51.4247L50.8269 48.8174C50.5324 49.1118 50.5324 49.5893 50.8269 49.8838C50.9741 50.031 51.167 50.1046 51.3601 50.1046C51.5531 50.1046 51.746 50.031 51.8933 49.8838L53.7785 47.9986C54.073 47.7041 54.073 47.2266 53.7785 46.9321L51.8933 45.0469C51.5988 44.7524 51.1214 44.7524 50.8268 45.0469C50.5323 45.3414 50.5323 45.8189 50.8268 46.1134L51.4247 46.7113H50.4928C49.1982 46.7113 48.1128 46.1309 48.1041 46.1261C48.0468 46.0946 46.6822 45.354 44.9881 45.354C44.2252 45.354 43.5298 45.5042 42.9898 45.6722V40.4847C43.4205 40.3121 44.1614 40.0754 44.9881 40.0754C46.2827 40.0754 47.3681 40.6558 47.3768 40.6606C47.4341 40.6921 48.7987 41.4328 50.4928 41.4328H51.4246L50.8268 42.0307C50.5323 42.3251 50.5323 42.8026 50.8269 43.0971Z" fill="white"/>
</svg>
