<svg width="126" height="90" viewBox="0 0 126 90" fill="none" xmlns="http://www.w3.org/2000/svg">
<rect y="1.95825" width="123.14" height="87.0652" fill="white"/>
<path d="M0 0H125.079V90H0V0ZM22.9831 17.8085C25.4763 21.3183 27.9779 24.8225 30.485 28.3211C31.8332 28.3296 33.1814 28.3394 34.5296 28.3155C32.9142 25.962 31.1918 23.6845 29.5876 21.3225C51.0876 21.3127 72.5875 21.3113 94.0874 21.3239C92.4735 23.6789 90.758 25.962 89.1399 28.3141C90.4895 28.338 91.8404 28.3338 93.19 28.3169C95.693 24.8183 98.1932 21.3155 100.686 17.8085C74.7858 17.8169 48.8837 17.8141 22.9831 17.8085ZM109.829 23.5887C108.937 23.8606 108.365 24.8465 108.514 25.769C108.652 26.9085 109.886 27.7211 110.972 27.3887C112.028 27.1394 112.684 25.9 112.329 24.8676C112.045 23.8239 110.824 23.2183 109.829 23.5887ZM81.8689 31.7535C80.0032 32.6493 78.783 34.5282 78.1973 36.4789C77.6143 38.4873 77.5489 40.6324 77.8564 42.6944C78.182 44.8507 79.2588 46.9662 81.0856 48.1958C82.6355 49.2676 84.6182 49.5352 86.4436 49.2296C88.2857 48.9183 89.9761 47.7521 90.8999 46.1042C91.5079 45.0394 91.7973 43.8225 91.9267 42.6099C90.4074 42.5155 88.8895 42.3915 87.3674 42.3268C87.2561 43.1437 87.1253 44.0282 86.5535 44.6606C85.8189 45.4704 84.3733 45.4366 83.6874 44.5775C83.0835 43.8634 82.9708 42.8859 82.8762 41.9859C82.7705 40.5085 82.7608 39.0085 83.0404 37.5479C83.2088 36.7732 83.4773 35.9394 84.1298 35.4437C84.8004 34.938 85.8161 35.0324 86.3962 35.638C87.1573 36.3521 87.2255 37.4775 87.2672 38.4592C88.8199 38.3944 90.3726 38.293 91.9239 38.1972C91.8335 36.893 91.5385 35.5859 90.9264 34.4268C90.1848 32.969 88.87 31.7986 87.2881 31.3817C85.5142 30.9197 83.5455 30.9521 81.8689 31.7535ZM17.5222 31.3662C17.5138 37.2662 17.5124 43.1662 17.5236 49.0648C21.6029 49.0761 25.685 49.0775 29.7643 49.0648C29.7643 47.6563 29.7754 46.2479 29.7588 44.8394C27.3142 44.838 24.8683 44.8521 22.4224 44.8324C22.4224 43.8761 22.4196 42.9197 22.4252 41.962C24.4022 41.9394 26.3793 41.9648 28.3563 41.9507C28.3563 40.6423 28.3591 39.3338 28.3549 38.0254C26.3779 37.9986 24.3994 38.0239 22.421 38.0127C22.4224 37.162 22.4196 36.3113 22.4238 35.4606C24.8697 35.4423 27.3156 35.4592 29.7601 35.4535C29.7727 34.0916 29.7671 32.7296 29.7643 31.3662C25.6836 31.3549 21.6029 31.3563 17.5222 31.3662ZM31.7316 31.3662C31.7275 37.2662 31.7289 43.1648 31.7316 49.0648C35.5327 49.0775 39.3365 49.0761 43.1376 49.0648C43.1487 47.6197 43.1487 46.1746 43.1376 44.7296C41.0061 44.7141 38.8746 44.7225 36.7431 44.7268C36.7153 40.2732 36.7473 35.8183 36.7278 31.3648C35.0624 31.3563 33.397 31.3535 31.7316 31.3662ZM44.8893 31.3648C44.8754 37.2648 44.8781 43.1648 44.8893 49.0662C46.5491 49.0775 48.2103 49.0746 49.8702 49.0676C49.8841 43.1662 49.8827 37.2662 49.8716 31.3648C48.2103 31.3549 46.5505 31.3563 44.8893 31.3648ZM51.2976 31.3662C51.2879 32.7803 51.2837 34.193 51.3004 35.607C52.4204 35.6113 53.5418 35.6 54.6618 35.6127C54.673 40.0972 54.6549 44.5817 54.6716 49.0648C56.2479 49.0775 57.8257 49.0775 59.402 49.0648C59.4118 44.5803 59.3923 40.0958 59.4118 35.6127C60.5304 35.5986 61.649 35.6141 62.7662 35.6056C62.7801 34.193 62.7787 32.7789 62.7676 31.3662C58.9443 31.3549 55.121 31.3549 51.2976 31.3662ZM64.1854 31.3789C64.1868 37.2676 64.1923 43.1577 64.1826 49.0465C68.2619 49.1 72.3454 49.0662 76.4261 49.0634C76.4233 47.6549 76.4595 46.2451 76.4066 44.838C73.9704 44.8423 71.5343 44.8465 69.0981 44.8352C69.087 43.8775 69.087 42.9197 69.0981 41.962C71.0724 41.9423 73.0466 41.962 75.0209 41.9521C75.032 40.6423 75.0306 39.331 75.0209 38.0211C73.0466 38.0042 71.0724 38.0211 69.0981 38.0141C69.087 37.162 69.0869 36.3099 69.0995 35.4592C71.5384 35.4451 73.9774 35.4563 76.4164 35.4535C76.4456 34.0916 76.4317 32.7282 76.4247 31.3662C72.3454 31.3634 68.2647 31.338 64.1854 31.3789ZM93.7549 31.3662C93.7438 37.2662 93.7438 43.1648 93.7549 49.0648C95.4175 49.0718 97.0829 49.0901 98.7455 49.0549C98.7455 46.7662 98.7372 44.4789 98.7497 42.1916C100.013 42.1775 101.278 42.1775 102.542 42.1901C102.554 44.4817 102.541 46.7732 102.548 49.0648C104.215 49.0775 105.88 49.0746 107.546 49.0662C107.55 43.1662 107.551 37.2648 107.546 31.3648C105.88 31.3563 104.215 31.3535 102.549 31.3662C102.538 33.5352 102.558 35.7042 102.54 37.8718C101.276 37.8746 100.013 37.8761 98.7497 37.8718C98.7358 35.7056 98.7483 33.5394 98.7441 31.3732C97.0815 31.3451 95.4175 31.3592 93.7549 31.3662ZM47.7415 52.4789C48.9769 54.2831 50.2764 56.0423 51.537 57.8282C54.9679 62.6338 58.3933 67.4423 61.8285 72.2437C63.4967 69.9577 65.1217 67.638 66.7732 65.338C69.816 61.0479 72.9103 56.793 75.9211 52.4789C74.5854 52.4437 73.2484 52.4775 71.9127 52.4606C68.5123 57.1211 65.2316 61.8732 61.8187 66.5254C58.4615 61.8437 55.1391 57.1352 51.7665 52.4648C50.4253 52.4718 49.0827 52.4479 47.7415 52.4789Z" fill="#E31F23"/>
</svg>
