<svg width="139" height="100" viewBox="0 0 139 100" fill="none" xmlns="http://www.w3.org/2000/svg">
<rect y="2.17578" width="136.822" height="96.7391" fill="white"/>
<path d="M0 0H138.977V100H0V0ZM25.5367 19.7872C28.307 23.687 31.0865 27.5806 33.8722 31.4679C35.3702 31.4773 36.8682 31.4883 38.3662 31.4617C36.5714 28.8466 34.6576 26.3161 32.8751 23.6917C56.764 23.6808 80.6528 23.6792 104.542 23.6933C102.748 26.3099 100.842 28.8466 99.0443 31.4601C100.544 31.4867 102.045 31.482 103.544 31.4632C106.326 27.5759 109.104 23.6839 111.874 19.7872C83.0953 19.7966 54.3152 19.7934 25.5367 19.7872ZM122.032 26.2097C121.041 26.5117 120.406 27.6072 120.571 28.6322C120.724 29.8983 122.095 30.8013 123.303 30.4319C124.476 30.1549 125.204 28.7778 124.81 27.6307C124.495 26.4711 123.137 25.7981 122.032 26.2097ZM90.9655 35.2817C88.8924 36.277 87.5367 38.3646 86.8858 40.5321C86.2381 42.7637 86.1655 45.1471 86.5071 47.4382C86.8688 49.8341 88.0654 52.1847 90.0951 53.5509C91.8173 54.7418 94.0202 55.0391 96.0484 54.6995C98.0952 54.3537 99.9734 53.0579 101 51.2269C101.675 50.0438 101.997 48.6917 102.141 47.3443C100.453 47.2394 98.7661 47.1017 97.0749 47.0297C96.9512 47.9374 96.8059 48.9202 96.1705 49.6228C95.3543 50.5227 93.7481 50.4851 92.986 49.5305C92.315 48.7371 92.1898 47.651 92.0847 46.651C91.9672 45.0094 91.9564 43.3427 92.2671 41.7199C92.4542 40.8592 92.7525 39.9327 93.4776 39.3818C94.2227 38.82 95.3512 38.9249 95.9958 39.5978C96.8414 40.3912 96.9172 41.6416 96.9636 42.7324C98.6888 42.6604 100.414 42.5477 102.138 42.4413C102.037 40.9922 101.709 39.5399 101.029 38.252C100.205 36.6322 98.7444 35.3318 96.9868 34.8685C95.0157 34.3552 92.8283 34.3912 90.9655 35.2817ZM19.4691 34.8513C19.4598 41.4069 19.4583 47.9624 19.4706 54.5164C24.0032 54.5289 28.5389 54.5305 33.0715 54.5164C33.0715 52.9515 33.0838 51.3865 33.0653 49.8216C30.3491 49.82 27.6314 49.8357 24.9137 49.8138C24.9137 48.7512 24.9107 47.6886 24.9168 46.6244C27.1136 46.5994 29.3103 46.6275 31.507 46.6119C31.507 45.1581 31.5101 43.7042 31.5055 42.2504C29.3087 42.2207 27.1105 42.2488 24.9122 42.2363C24.9137 41.2911 24.9107 40.3459 24.9153 39.4006C27.633 39.3803 30.3507 39.3991 33.0668 39.3928C33.0807 37.8795 33.0746 36.3662 33.0715 34.8513C28.5373 34.8388 24.0032 34.8404 19.4691 34.8513ZM35.2574 34.8513C35.2527 41.4069 35.2543 47.9609 35.2574 54.5164C39.4808 54.5305 43.7073 54.5289 47.9307 54.5164C47.943 52.9108 47.943 51.3052 47.9307 49.6995C45.5623 49.6823 43.194 49.6917 40.8257 49.6964C40.7948 44.748 40.8303 39.7981 40.8087 34.8498C38.9583 34.8404 37.1078 34.8372 35.2574 34.8513ZM49.877 34.8498C49.8615 41.4053 49.8646 47.9609 49.877 54.518C51.7212 54.5305 53.567 54.5274 55.4113 54.5196C55.4267 47.9624 55.4252 41.4069 55.4128 34.8498C53.567 34.8388 51.7228 34.8404 49.877 34.8498ZM56.9974 34.8513C56.9866 36.4225 56.9819 37.9922 57.0005 39.5634C58.2449 39.5681 59.4909 39.5556 60.7354 39.5696C60.7477 44.5524 60.7276 49.5352 60.7462 54.5164C62.4977 54.5305 64.2508 54.5305 66.0023 54.5164C66.0131 49.5336 65.9914 44.5509 66.0131 39.5696C67.256 39.554 68.4989 39.5712 69.7402 39.5618C69.7557 37.9922 69.7542 36.421 69.7418 34.8513C65.4937 34.8388 61.2455 34.8388 56.9974 34.8513ZM71.3171 34.8654C71.3186 41.4085 71.3248 47.9531 71.314 54.4961C75.8466 54.5556 80.3838 54.518 84.9179 54.5149C84.9148 52.9499 84.955 51.3834 84.8963 49.82C82.1894 49.8247 79.4825 49.8294 76.7756 49.8169C76.7633 48.7527 76.7633 47.6886 76.7756 46.6244C78.9693 46.6025 81.1629 46.6244 83.3565 46.6135C83.3689 45.1581 83.3674 43.7011 83.3565 42.2457C81.1629 42.2269 78.9693 42.2457 76.7756 42.2379C76.7633 41.2911 76.7633 40.3443 76.7772 39.3991C79.4872 39.3834 82.1971 39.3959 84.9071 39.3928C84.9395 37.8795 84.9241 36.3646 84.9164 34.8513C80.3838 34.8482 75.8496 34.82 71.3171 34.8654ZM104.172 34.8513C104.16 41.4069 104.16 47.9609 104.172 54.5164C106.019 54.5243 107.87 54.5446 109.717 54.5055C109.717 51.9624 109.708 49.421 109.722 46.8795C111.126 46.8639 112.531 46.8638 113.936 46.8779C113.948 49.4241 113.934 51.9703 113.942 54.5164C115.794 54.5305 117.645 54.5274 119.495 54.518C119.5 47.9624 119.501 41.4053 119.495 34.8498C117.645 34.8404 115.794 34.8372 113.944 34.8513C113.931 37.2613 113.953 39.6714 113.933 42.0798C112.529 42.0829 111.126 42.0845 109.722 42.0798C109.706 39.6729 109.72 37.266 109.716 34.8592C107.868 34.8279 106.019 34.8435 104.172 34.8513ZM53.0461 58.3099C54.4188 60.3146 55.8627 62.2692 57.2633 64.2535C61.0755 69.5931 64.8815 74.9358 68.6983 80.2707C70.5518 77.7308 72.3575 75.1534 74.1924 72.5978C77.5733 67.831 81.0114 63.1033 84.3567 58.3099C82.8727 58.2707 81.3871 58.3083 79.903 58.2895C76.1248 63.4679 72.4796 68.748 68.6875 73.9171C64.9572 68.7152 61.2656 63.4836 57.5184 58.2942C56.0281 58.302 54.5363 58.2754 53.0461 58.3099Z" fill="#E31F23"/>
</svg>
