<svg width="70" height="51" viewBox="0 0 70 51" fill="none" xmlns="http://www.w3.org/2000/svg">
<rect y="1.09595" width="68.9147" height="48.7258" fill="white"/>
<path d="M0 0H70V50.3682H0V0ZM12.8624 9.96644C14.2577 11.9307 15.6577 13.8919 17.0608 15.8498C17.8153 15.8546 18.5699 15.8601 19.3244 15.8467C18.4204 14.5295 17.4564 13.255 16.5586 11.9331C28.591 11.9276 40.6234 11.9268 52.6557 11.9339C51.7525 13.2518 50.7924 14.5295 49.8869 15.8459C50.6422 15.8593 51.3982 15.8569 52.1535 15.8475C53.5543 13.8895 54.9535 11.9291 56.3488 9.96644C41.8536 9.97117 27.3576 9.9696 12.8624 9.96644ZM61.4653 13.2014C60.9662 13.3535 60.6462 13.9053 60.7295 14.4215C60.8066 15.0592 61.4972 15.514 62.1053 15.328C62.6963 15.1885 63.0631 14.4949 62.8645 13.9171C62.7057 13.333 62.022 12.9941 61.4653 13.2014ZM45.8177 17.7708C44.7735 18.2721 44.0907 19.3236 43.7628 20.4153C43.4366 21.5393 43.4 22.7398 43.5721 23.8938C43.7543 25.1006 44.3569 26.2845 45.3793 26.9726C46.2467 27.5725 47.3563 27.7222 48.3779 27.5512C49.4088 27.377 50.3548 26.7243 50.8719 25.8021C51.2121 25.2062 51.3741 24.5251 51.4465 23.8465C50.5962 23.7937 49.7467 23.7243 48.8949 23.688C48.8326 24.1452 48.7594 24.6402 48.4394 24.9941C48.0282 25.4474 47.2192 25.4285 46.8354 24.9476C46.4974 24.548 46.4344 24.001 46.3814 23.4973C46.3222 22.6704 46.3168 21.831 46.4733 21.0136C46.5675 20.58 46.7178 20.1134 47.083 19.8359C47.4583 19.553 48.0267 19.6058 48.3514 19.9447C48.7773 20.3443 48.8155 20.9741 48.8388 21.5235C49.7078 21.4873 50.5767 21.4305 51.4449 21.3769C51.3943 20.647 51.2293 19.9155 50.8866 19.2668C50.4716 18.451 49.7358 17.796 48.8505 17.5627C47.8577 17.3041 46.7559 17.3223 45.8177 17.7708ZM9.80623 17.554C9.80156 20.8559 9.80078 24.1578 9.80701 27.459C12.09 27.4653 14.3745 27.466 16.6575 27.459C16.6575 26.6707 16.6637 25.8825 16.6544 25.0943C15.2863 25.0935 13.9175 25.1013 12.5486 25.0903C12.5486 24.5551 12.5471 24.0199 12.5502 23.4839C13.6566 23.4713 14.7631 23.4855 15.8695 23.4776C15.8695 22.7453 15.8711 22.013 15.8687 21.2808C14.7623 21.2658 13.6551 21.28 12.5478 21.2737C12.5486 20.7976 12.5471 20.3215 12.5494 19.8454C13.9182 19.8351 15.2871 19.8446 16.6552 19.8415C16.6622 19.0792 16.6591 18.317 16.6575 17.554C14.3737 17.5477 12.09 17.5485 9.80623 17.554ZM17.7585 17.554C17.7562 20.8559 17.757 24.157 17.7585 27.459C19.8858 27.466 22.0146 27.4653 24.1418 27.459C24.1481 26.6502 24.1481 25.8415 24.1418 25.0328C22.9489 25.0241 21.7561 25.0288 20.5632 25.0312C20.5476 22.5388 20.5655 20.0456 20.5546 17.5532C19.6226 17.5485 18.6905 17.5469 17.7585 17.554ZM25.1221 17.5532C25.1143 20.8551 25.1159 24.157 25.1221 27.4597C26.0511 27.4661 26.9808 27.4645 27.9097 27.4605C27.9175 24.1578 27.9167 20.8559 27.9105 17.5532C26.9808 17.5477 26.0518 17.5485 25.1221 17.5532ZM28.7086 17.554C28.7031 18.3454 28.7008 19.136 28.7101 19.9274C29.3369 19.9297 29.9645 19.9234 30.5913 19.9305C30.5976 22.4403 30.5874 24.95 30.5968 27.459C31.479 27.466 32.362 27.466 33.2442 27.459C33.2496 24.9492 33.2387 22.4395 33.2496 19.9305C33.8756 19.9226 34.5017 19.9313 35.1269 19.9266C35.1347 19.136 35.1339 18.3446 35.1277 17.554C32.988 17.5477 30.8483 17.5477 28.7086 17.554ZM35.9211 17.5611C35.9219 20.8567 35.925 24.1531 35.9196 27.4487C38.2026 27.4787 40.4879 27.4597 42.7716 27.4582C42.7701 26.6699 42.7903 25.8809 42.7607 25.0935C41.3973 25.0958 40.0339 25.0982 38.6705 25.0919C38.6643 24.5559 38.6643 24.0199 38.6705 23.4839C39.7754 23.4729 40.8803 23.4839 41.9852 23.4784C41.9914 22.7453 41.9907 22.0115 41.9852 21.2784C40.8803 21.2689 39.7754 21.2784 38.6705 21.2745C38.6643 20.7976 38.6643 20.3207 38.6713 19.8446C40.0363 19.8367 41.4012 19.843 42.7662 19.8415C42.7825 19.0792 42.7747 18.3162 42.7709 17.554C40.4879 17.5524 38.2041 17.5382 35.9211 17.5611ZM52.4696 17.554C52.4634 20.8559 52.4634 24.157 52.4696 27.459C53.4001 27.4629 54.3321 27.4731 55.2626 27.4534C55.2626 26.1726 55.2579 24.8925 55.265 23.6124C55.972 23.6045 56.6798 23.6045 57.3875 23.6116C57.3938 24.894 57.3868 26.1765 57.3907 27.459C58.3235 27.466 59.2555 27.4645 60.1875 27.4597C60.1899 24.1578 60.1907 20.8551 60.1875 17.5532C59.2555 17.5485 58.3235 17.5469 57.3914 17.554C57.3852 18.7679 57.3961 19.9818 57.386 21.1949C56.679 21.1964 55.972 21.1972 55.265 21.1949C55.2572 19.9825 55.2642 18.7702 55.2618 17.5579C54.3314 17.5422 53.4001 17.5501 52.4696 17.554ZM26.7184 29.3696C27.4098 30.3794 28.137 31.3639 28.8425 32.3634C30.7626 35.0528 32.6796 37.7438 34.6021 40.4309C35.5357 39.1516 36.4452 37.8534 37.3694 36.5662C39.0723 34.1653 40.804 31.784 42.489 29.3696C41.7415 29.3499 40.9932 29.3689 40.2457 29.3594C38.3427 31.9677 36.5067 34.6272 34.5967 37.2307C32.7178 34.6106 30.8584 31.9755 28.971 29.3618C28.2204 29.3657 27.469 29.3523 26.7184 29.3696Z" fill="#E31F23"/>
</svg>
