<svg width="137" height="153" viewBox="0 0 137 153" fill="none" xmlns="http://www.w3.org/2000/svg">
<g filter="url(#filter0_d_164_14)">
<path d="M20 100.75L20 44.25L68.4983 16L117 44.25L117 100.75L68.4983 129L20 100.75Z" fill="white"/>
</g>
<path d="M57.6081 66.9458C57.0794 66.9458 56.6504 67.3743 56.6504 67.9035V71.9893C56.6504 72.5185 57.0794 72.947 57.6081 72.947H69.8657C70.3943 72.947 70.8234 72.5185 70.8234 71.9893V67.9035C70.8234 67.3743 70.3943 66.9458 69.8657 66.9458H57.6081ZM68.908 71.0317H58.5658V68.8612H68.908V71.0317Z" fill="#333333"/>
<path d="M73.7958 91.3205C73.8482 91.3289 73.9005 91.3334 73.9533 91.3334C74.042 91.3334 74.1307 91.321 74.2164 91.2965L81.3666 89.2536C81.4234 89.2372 81.4788 89.2157 81.5321 89.1893L87.6609 86.1249C87.9852 85.9625 88.19 85.6311 88.19 85.2684C88.19 84.5354 87.8941 83.5857 87.1686 82.9529V65.3075C87.1686 64.7783 86.74 64.3498 86.2109 64.3498C85.6822 64.3498 85.2532 64.7783 85.2532 65.3075V82.2693C85.2318 82.2693 85.2113 82.2678 85.1894 82.2678C83.2073 82.2678 80.6397 83.7801 79.7996 84.3107H75.3106L72.5975 82.1402H77.0177C77.5464 82.1402 77.9754 81.7117 77.9754 81.1825V79.1396C77.9754 77.4848 76.629 76.139 74.9748 76.139H65.7816C65.5274 76.139 65.2838 76.2396 65.1044 76.4195L61.2991 80.2249H59.589V80.1611C59.589 79.6319 59.16 79.2034 58.6313 79.2034H54.4817V55.5821H65.8453V62.7962C65.8453 63.4384 66.4956 63.9078 67.106 63.7045L69.8674 62.7842L72.6289 63.7045C73.2393 63.9078 73.8895 63.4384 73.8895 62.7962V55.5821H85.2532V60.7109C85.2532 61.2395 85.6817 61.6681 86.2109 61.6681C86.74 61.6681 87.1686 61.2395 87.1686 60.7109V54.6244C87.1686 54.0953 86.74 53.6667 86.2109 53.6667H53.524C52.9953 53.6667 52.5663 54.0953 52.5663 54.6244V79.2034H47.3952C46.866 79.2034 46.4375 79.6319 46.4375 80.1611C46.4375 80.6902 46.866 81.1188 47.3952 81.1188H57.6736V89.418H47.3952C46.866 89.418 46.4375 89.8466 46.4375 90.3757C46.4375 90.9049 46.866 91.3334 47.3952 91.3334H58.6313C59.16 91.3334 59.589 90.9049 59.589 90.3757V89.2905H61.616L73.7958 91.3205ZM71.9741 55.5821V61.4678L70.1704 60.8663C69.9751 60.8011 69.7598 60.8011 69.5645 60.8663L67.7607 61.4678V55.5821H71.9741ZM59.589 82.1402H61.6957C61.9473 82.1402 62.194 82.0366 62.3729 81.8597L66.1782 78.0544H74.9748C75.5732 78.0544 76.06 78.5412 76.06 79.1396V80.2249H69.8674C69.4728 80.2249 69.113 80.477 68.9725 80.8437C68.8275 81.2229 68.9481 81.6783 69.269 81.9305L74.3763 86.0163C74.5462 86.1518 74.7575 86.2261 74.9748 86.2261H80.0821C80.2709 86.2261 80.4558 86.1703 80.6132 86.0651C81.3985 85.5415 83.7514 84.1832 85.1894 84.1832C85.7545 84.1832 86.031 84.4413 86.1625 84.7328L80.7548 87.4364L73.898 89.3956L61.8532 87.3881C61.8437 87.3866 61.8347 87.3861 61.8258 87.3851C61.8083 87.3826 61.7914 87.3806 61.7744 87.3791C61.7575 87.3776 61.7405 87.3771 61.7241 87.3766C61.7146 87.3761 61.7052 87.3751 61.6957 87.3751H59.589V82.1402Z" fill="#333333"/>
<defs>
<filter id="filter0_d_164_14" x="0" y="0" width="137" height="153" filterUnits="userSpaceOnUse" color-interpolation-filters="sRGB">
<feFlood flood-opacity="0" result="BackgroundImageFix"/>
<feColorMatrix in="SourceAlpha" type="matrix" values="0 0 0 0 0 0 0 0 0 0 0 0 0 0 0 0 0 0 127 0" result="hardAlpha"/>
<feOffset dy="4"/>
<feGaussianBlur stdDeviation="10"/>
<feComposite in2="hardAlpha" operator="out"/>
<feColorMatrix type="matrix" values="0 0 0 0 0 0 0 0 0 0 0 0 0 0 0 0 0 0 0.2 0"/>
<feBlend mode="normal" in2="BackgroundImageFix" result="effect1_dropShadow_164_14"/>
<feBlend mode="normal" in="SourceGraphic" in2="effect1_dropShadow_164_14" result="shape"/>
</filter>
</defs>
</svg>
