<svg width="70" height="80" viewBox="0 0 70 80" fill="none" xmlns="http://www.w3.org/2000/svg">
<path d="M-2.62268e-06 60L-8.74228e-07 20L34.9988 1.52985e-06L70 20L70 60L34.9988 80L-2.62268e-06 60Z" fill="#E31F23"/>
<path d="M41.6307 35.2404C42.0885 35.6982 42.0885 36.4402 41.6307 36.8977L33.7691 44.7596C33.3113 45.2171 32.5695 45.2171 32.1117 44.7596L28.3693 41.0169C27.9115 40.5594 27.9115 39.8174 28.3693 39.3598C28.8268 38.9021 29.5689 38.9021 30.0264 39.3598L32.9403 42.2737L39.9734 35.2404C40.4311 34.7829 41.1732 34.7829 41.6307 35.2404ZM50 40C50 48.2912 43.2901 55 35 55C26.7088 55 20 48.2901 20 40C20 31.7088 26.7099 25 35 25C43.2912 25 50 31.7099 50 40ZM47.6562 40C47.6562 33.0042 41.9949 27.3438 35 27.3438C28.0042 27.3438 22.3438 33.0051 22.3438 40C22.3438 46.9958 28.0051 52.6562 35 52.6562C41.9958 52.6562 47.6562 46.9949 47.6562 40Z" fill="white" stroke="white"/>
</svg>
