<svg width="70" height="80" viewBox="0 0 70 80" fill="none" xmlns="http://www.w3.org/2000/svg">
<path d="M-2.62268e-06 60L-8.74228e-07 20L34.9988 1.52985e-06L70 20L70 60L34.9988 80L-2.62268e-06 60Z" fill="#E31F23"/>
<path d="M21.7578 26.7578H23.235V25H20V28.235H21.7578V26.7578Z" fill="white"/>
<path d="M20 30.3529H21.7578V33.5879H20V30.3529Z" fill="white"/>
<path d="M20 35.7061H21.7578V38.9411H20V35.7061Z" fill="white"/>
<path d="M41.412 25H44.6469V26.7578H41.412V25Z" fill="white"/>
<path d="M36.0586 25H39.2936V26.7578H36.0586V25Z" fill="white"/>
<path d="M30.7051 25H33.94V26.7578H30.7051V25Z" fill="white"/>
<path d="M25.3535 25H28.5885V26.7578H25.3535V25Z" fill="white"/>
<path d="M46.7656 25V26.7578H48.2428V28.235H50.0006V25H46.7656Z" fill="white"/>
<path d="M48.2422 30.3529H50V33.5879H48.2422V30.3529Z" fill="white"/>
<path d="M48.2422 35.7061H50V38.9411H48.2422V35.7061Z" fill="white"/>
<path d="M48.2422 41.0591H50V44.2941H48.2422V41.0591Z" fill="white"/>
<path d="M48.2422 46.412H50V49.647H48.2422V46.412Z" fill="white"/>
<path d="M48.2428 53.2423H46.7656V55.0002H50.0006V51.7651H48.2428V53.2423Z" fill="white"/>
<path d="M41.412 53.2422H44.6469V55H41.412V53.2422Z" fill="white"/>
<path d="M36.0586 53.2422H39.2936V55H36.0586V53.2422Z" fill="white"/>
<path d="M20 41.0591H33.941V55.0001H20V41.0591Z" fill="white"/>
<path d="M41.0921 31.793H41.9645L37.2461 36.5114V35.6389H35.4883V39.5122H39.3615V37.7544H38.489L43.2075 33.0359V33.9084H44.9653V30.0352H41.0921V31.793Z" fill="white"/>
</svg>
