<svg width="70" height="80" viewBox="0 0 70 80" fill="none" xmlns="http://www.w3.org/2000/svg">
<path d="M-2.62268e-06 60L-8.74228e-07 20L34.9988 1.52985e-06L70 20L70 60L34.9988 80L-2.62268e-06 60Z" fill="#E31F23"/>
<path d="M26.3747 35.8367C26.2533 36.2106 26.3546 36.621 26.6362 36.8954L29.882 40.0596L29.1158 44.5272C29.0493 44.9146 29.2087 45.3062 29.5268 45.5373C29.7067 45.668 29.9197 45.7345 30.1339 45.7345C30.2982 45.7345 30.4632 45.6953 30.6143 45.6159L34.6267 43.5066L38.6391 45.6159C38.7901 45.6953 38.9551 45.7345 39.1196 45.7345H39.1231C39.6925 45.7334 40.1539 45.2714 40.1539 44.7018C40.1539 44.6225 40.1448 44.5453 40.1279 44.471L39.3712 40.0596L42.6173 36.8954C42.8988 36.621 43.0002 36.2106 42.8786 35.8367C42.7571 35.4628 42.434 35.1903 42.045 35.1338L37.5591 34.4821L35.553 30.4171C35.379 30.0646 35.0199 29.8414 34.6269 29.8414C34.2338 29.8414 33.8747 30.0646 33.7007 30.4171L31.6945 34.4821L27.2087 35.1338C26.8194 35.1904 26.4963 35.4629 26.3747 35.8367V35.8367Z" fill="white"/>
<path d="M51.5386 37.8359C51.4339 37.8018 50.4847 37.5032 49.4007 37.5032C48.7222 37.5032 48.1271 37.6224 47.6261 37.8566C47.6161 37.6834 47.6036 37.5106 47.5868 37.3382C48.4373 37.0977 49.5962 36.6131 50.255 35.6726C51.3185 34.1539 50.8186 31.8151 50.7582 31.5534C50.6392 31.0386 50.1505 30.6967 49.6264 30.7609C49.3726 30.7919 47.2161 31.0931 46.0916 32.4312C46.0145 32.2886 45.9354 32.1468 45.8529 32.0068C45.8473 31.9974 45.8414 31.9883 45.8359 31.979C46.5048 31.4015 47.3496 30.473 47.5489 29.3429C47.8708 27.5167 46.4294 25.6085 46.264 25.3969C45.9385 24.9807 45.3515 24.8773 44.9033 25.1571C44.6866 25.2926 42.8578 26.478 42.405 28.1674C42.0003 27.8653 41.5784 27.585 41.1396 27.3311C40.6458 27.0455 40.0142 27.214 39.7284 27.7077C39.4428 28.2014 39.6115 28.8333 40.1051 29.1189C41.0326 29.6556 41.863 30.3196 42.5805 31.0806C44.4713 33.0571 45.6329 35.7369 45.6329 38.6881C45.6329 44.7671 40.7049 49.695 34.626 49.695C28.5471 49.695 23.6191 44.7671 23.6191 38.6882C23.6191 35.7392 24.779 33.0612 26.6672 31.0852C27.3857 30.3222 28.2175 29.6567 29.147 29.1189C29.6408 28.8333 29.8095 28.2015 29.5239 27.7077C29.2383 27.214 28.6065 27.0455 28.1128 27.3309C27.6739 27.5848 27.2519 27.8652 26.847 28.1673C26.3945 26.4779 24.5654 25.2924 24.3486 25.157C23.9005 24.8771 23.3134 24.9806 22.9881 25.3969C22.8227 25.6084 21.3811 27.5166 21.703 29.343C21.9024 30.4731 22.7471 31.4014 23.4161 31.9789C23.4106 31.9882 23.4047 31.9973 23.3992 32.0066C23.3166 32.1466 23.2375 32.2884 23.1605 32.4312C22.0357 31.093 19.8793 30.7919 19.6255 30.7608C19.1012 30.6967 18.6127 31.0386 18.4938 31.5534C18.4333 31.8151 17.9336 34.1539 18.9971 35.6724C19.6557 36.6131 20.8148 37.0976 21.6652 37.3382C21.6484 37.5105 21.6359 37.6834 21.6258 37.8565C21.1251 37.6224 20.5298 37.5031 19.8513 37.5031C18.7674 37.5031 17.8181 37.8017 17.7134 37.8357C17.211 37.9992 16.9129 38.5155 17.0226 39.0324C17.0784 39.2951 17.6139 41.6257 19.2198 42.553C19.7655 42.868 20.4418 43.0278 21.2298 43.0278C21.6308 43.0278 22.0131 42.9869 22.3413 42.9337C22.399 43.0975 22.4595 43.2599 22.5234 43.4206C22.5229 43.4206 22.5223 43.4205 22.5219 43.4205C20.7739 43.4205 19.15 44.8884 18.9705 45.0559C18.5842 45.4163 18.5323 46.0102 18.8501 46.4323C19.0117 46.6468 20.482 48.5332 22.3291 48.6947C22.4168 48.7023 22.5068 48.7062 22.5968 48.7062H22.597C23.6469 48.7062 24.6516 48.1767 25.3258 47.7174C25.4474 47.8416 25.5712 47.9634 25.6976 48.0827C24.109 48.8195 23.2571 50.8311 23.1611 51.0686C22.9633 51.5586 23.1673 52.1188 23.634 52.367C23.7836 52.4465 25.1375 53.145 26.5458 53.1451H26.546C26.9788 53.1451 27.3815 53.0784 27.7432 52.9469C28.8221 52.554 29.5899 51.5598 30.0425 50.8006C30.4135 50.9406 30.7926 51.064 31.1788 51.1701C30.5777 51.7812 30.0271 52.5593 29.5441 53.4925C29.2819 53.9989 29.4799 54.6222 29.9865 54.8844C30.4931 55.1464 31.1163 54.9485 31.3785 54.4419C32.3021 52.6575 33.4859 51.6342 34.6263 51.6342C35.7668 51.6342 36.9505 52.6575 37.8741 54.4419C38.0578 54.7967 38.4185 55.0001 38.7922 55.0001C38.9521 55.0001 39.1144 54.9629 39.2661 54.8843C39.7726 54.6221 39.9707 53.9989 39.7085 53.4923C39.2255 52.5591 38.6749 51.781 38.0739 51.17C38.4601 51.0639 38.839 50.9404 39.2101 50.8004C39.6625 51.5597 40.4306 52.554 41.5097 52.9469C41.871 53.0783 42.2738 53.145 42.7067 53.145C44.1149 53.145 45.4688 52.4464 45.6186 52.3667C46.0851 52.1186 46.2891 51.5584 46.0913 51.0683C45.9954 50.8309 45.1433 48.8194 43.5548 48.0825C43.6812 47.9633 43.8051 47.8415 43.9266 47.7173C44.6009 48.1766 45.6057 48.706 46.6555 48.706C46.7455 48.706 46.8354 48.7022 46.9233 48.6945C48.7703 48.533 50.2407 46.6467 50.4023 46.4322C50.72 46.0101 50.6681 45.4162 50.2818 45.0557C50.1024 44.8883 48.4785 43.4204 46.7306 43.4204C46.73 43.4204 46.7295 43.4204 46.7289 43.4204C46.793 43.2597 46.8535 43.0973 46.9112 42.9336C47.2393 42.9867 47.6217 43.0276 48.0226 43.0276C48.8105 43.0276 49.4868 42.8679 50.0329 42.5528C51.6384 41.6255 52.1741 39.295 52.2297 39.0322C52.339 38.5156 52.041 37.9993 51.5386 37.8359V37.8359Z" fill="white"/>
</svg>
