<svg width="137" height="153" viewBox="0 0 137 153" fill="none" xmlns="http://www.w3.org/2000/svg">
<g filter="url(#filter0_d_164_13)">
<path d="M20 100.75L20 44.25L68.4983 16L117 44.25L117 100.75L68.4983 129L20 100.75Z" fill="white"/>
</g>
<path d="M89.9975 53.7932H47.7036C45.9092 53.7932 44.4492 55.2533 44.4492 57.0475V83.8882C44.4492 84.3371 44.8136 84.7015 45.2626 84.7015H92.4384C92.8874 84.7015 93.2518 84.3371 93.2518 83.8882V57.0475C93.2519 55.2533 91.7919 53.7932 89.9975 53.7932ZM91.6251 83.0748H46.076V57.0475C46.076 56.1496 46.8064 55.42 47.7036 55.42H89.9975C90.8947 55.42 91.6251 56.1496 91.6251 57.0475V83.0748Z" fill="#333333"/>
<path d="M92.4385 83.0735H45.2626C44.8136 83.0735 44.4492 83.4379 44.4492 83.8868V87.9529C44.4492 89.7473 45.9092 91.2072 47.7036 91.2072H89.9975C91.7919 91.2072 93.2519 89.7473 93.2519 87.9529V83.8868C93.2519 83.4379 92.8875 83.0735 92.4385 83.0735ZM91.6251 87.953C91.6251 88.851 90.8947 89.5805 89.9975 89.5805H47.7036C46.8064 89.5805 46.076 88.851 46.076 87.953V84.7003H91.6252V87.953H91.6251Z" fill="#333333"/>
<path d="M71.2874 86.3284H66.4071C65.9581 86.3284 65.5938 86.6928 65.5938 87.1417C65.5938 87.5907 65.9581 87.9551 66.4071 87.9551H71.2874C71.7363 87.9551 72.1007 87.5907 72.1007 87.1417C72.1007 86.6928 71.7363 86.3284 71.2874 86.3284Z" fill="#333333"/>
<path d="M89.1775 57.0454H48.5087C48.0597 57.0454 47.6953 57.4098 47.6953 57.8588V83.8869C47.6953 84.3358 48.0597 84.7002 48.5087 84.7002H89.1776C89.6265 84.7002 89.9909 84.3358 89.9909 83.8869V57.8588C89.9909 57.4098 89.6265 57.0454 89.1775 57.0454ZM88.3641 83.0734H49.322V58.6721H88.3641V83.0734Z" fill="#333333"/>
<path d="M83.3147 77.7591L81.3513 75.7956L82.4436 74.7033C82.6462 74.5008 82.7275 74.2063 82.6575 73.9289C82.5875 73.6516 82.3769 73.432 82.1027 73.349L73.969 70.9089C73.6819 70.8226 73.372 70.9016 73.1605 71.1131C72.9482 71.3246 72.8702 71.6352 72.9563 71.9216L75.3965 80.0553C75.4786 80.3302 75.699 80.5409 75.9764 80.6108C76.2529 80.6792 76.5482 80.5994 76.7508 80.3969L77.9009 79.246L79.8643 81.2103C80.0164 81.3632 80.2238 81.4486 80.4394 81.4486C80.6549 81.4486 80.8623 81.3632 81.0144 81.2103L83.3146 78.9092C83.6327 78.5912 83.6327 78.0772 83.3147 77.7591ZM80.4394 79.4851L78.6516 77.6965C78.4442 77.4891 78.1725 77.3857 77.9009 77.3857C77.6283 77.3857 77.3567 77.4898 77.1501 77.6956L76.5629 78.2829L74.9483 72.9008L80.3304 74.5153L79.7008 75.1449C79.5275 75.319 79.4324 75.55 79.4324 75.7956C79.4324 76.0421 79.5284 76.2747 79.7025 76.4471L81.5895 78.3342L80.4394 79.4851Z" fill="#333333"/>
<path d="M78.6133 60.3013H55.8387C55.3898 60.3013 55.0254 60.6657 55.0254 61.1146V65.1815C55.0254 65.6305 55.3898 65.9949 55.8387 65.9949H78.6133C79.0622 65.9949 79.4266 65.6305 79.4266 65.1815V61.1146C79.4266 60.6657 79.0622 60.3013 78.6133 60.3013ZM77.7999 64.3682H56.6521V61.9281H77.7999V64.3682V64.3682Z" fill="#333333"/>
<path d="M75.0049 67.5116H60.0387C59.0061 67.5116 58.168 67.9772 58.168 68.5509V72.7082C58.168 73.2819 59.0061 73.7475 60.0387 73.7475H75.0049C76.0375 73.7475 76.8756 73.2819 76.8756 72.7082V68.5509C76.8756 67.9772 76.0375 67.5116 75.0049 67.5116Z" fill="#333333"/>
<path d="M78.6133 60.3013H55.8387C55.3898 60.3013 55.0254 60.6657 55.0254 61.1146V76.5688C55.0254 77.0177 55.3898 77.3821 55.8387 77.3821H75.202C75.4599 77.3821 75.7014 77.261 75.8544 77.0543C76.0082 76.8478 76.0553 76.581 75.9813 76.3345L74.9516 72.9012L78.3799 73.9302C78.6264 74.0042 78.8932 73.9571 79.0989 73.8033C79.3055 73.6504 79.4267 73.408 79.4267 73.151V61.1146C79.4266 60.6657 79.0622 60.3013 78.6133 60.3013ZM77.7999 72.0579L73.9713 70.9094C73.6842 70.8231 73.3743 70.902 73.1628 71.1135C72.9505 71.3258 72.8725 71.6357 72.9587 71.9229L74.1088 75.7555H56.6521V61.9281H77.7999V72.0579V72.0579Z" fill="#333333"/>
<defs>
<filter id="filter0_d_164_13" x="0" y="0" width="137" height="153" filterUnits="userSpaceOnUse" color-interpolation-filters="sRGB">
<feFlood flood-opacity="0" result="BackgroundImageFix"/>
<feColorMatrix in="SourceAlpha" type="matrix" values="0 0 0 0 0 0 0 0 0 0 0 0 0 0 0 0 0 0 127 0" result="hardAlpha"/>
<feOffset dy="4"/>
<feGaussianBlur stdDeviation="10"/>
<feComposite in2="hardAlpha" operator="out"/>
<feColorMatrix type="matrix" values="0 0 0 0 0 0 0 0 0 0 0 0 0 0 0 0 0 0 0.2 0"/>
<feBlend mode="normal" in2="BackgroundImageFix" result="effect1_dropShadow_164_13"/>
<feBlend mode="normal" in="SourceGraphic" in2="effect1_dropShadow_164_13" result="shape"/>
</filter>
</defs>
</svg>
