<svg width="139" height="153" viewBox="0 0 139 153" fill="none" xmlns="http://www.w3.org/2000/svg">
<g filter="url(#filter0_d_164_12)">
<path d="M20 100.75L20 44.25L69.4983 16L119 44.25L119 100.75L69.4983 129L20 100.75Z" fill="white"/>
</g>
<path d="M78.8239 84.938H71.3904L70.6126 84.1602L72.5644 82.2085C72.7788 81.994 72.8683 81.689 72.8037 81.3926C72.7391 81.0964 72.5308 80.8564 72.2467 80.7507L62.0591 76.9592C61.7016 76.826 61.3115 76.9109 61.0416 77.181C60.7717 77.4509 60.6867 77.8408 60.8199 78.1985L63.3281 84.938H53.1141C52.1164 84.938 51.3049 84.1264 51.3049 83.1289V70.6551C51.3049 70.3357 51.0461 70.0769 50.7267 70.0769C50.4073 70.0769 50.1484 70.3357 50.1484 70.6551V83.1289C50.1484 84.7641 51.4788 86.0945 53.1141 86.0945H63.7585L64.6113 88.3859C64.717 88.6703 64.9571 88.8785 65.2534 88.9431C65.5497 89.0078 65.8549 88.9182 66.0691 88.7038L68.0209 86.7522L70.0077 88.739C70.1955 88.9268 70.4423 89.0205 70.689 89.0205C70.9358 89.0205 71.1825 88.9266 71.3704 88.7389L72.5994 87.5099C72.9751 87.1342 72.975 86.5228 72.5994 86.1471C72.5994 86.1471 72.5994 86.1471 72.5993 86.1471L72.5469 86.0947H78.8238C79.1432 86.0947 79.4021 85.8359 79.4021 85.5164C79.4021 85.197 79.1432 84.938 78.8239 84.938V84.938ZM70.689 87.7846L68.4298 85.5253C68.3168 85.4124 68.1689 85.356 68.0209 85.356C67.8729 85.356 67.7249 85.4124 67.6119 85.5253L65.5485 87.5887L62.0506 78.1899L71.4493 81.6879L69.3859 83.7514C69.1601 83.9773 69.1601 84.3433 69.3859 84.5691L71.6452 86.8283L70.689 87.7846Z" fill="#333333" stroke="black" stroke-width="0.3"/>
<path d="M86.6567 55.981H84.6351C84.3156 55.981 84.0568 56.2398 84.0568 56.5592C84.0568 56.8786 84.3156 57.1374 84.6351 57.1374H86.6567C87.6543 57.1374 88.4659 57.9489 88.4659 58.9466V62.5695H51.3049V58.9466C51.3049 57.949 52.1164 57.1374 53.1141 57.1374H81.9608C82.2802 57.1374 82.539 56.8786 82.539 56.5592C82.539 56.2398 82.2802 55.981 81.9608 55.981H53.1141C51.4788 55.981 50.1484 57.3114 50.1484 58.9466V68.0527C50.1484 68.3721 50.4073 68.631 50.7267 68.631C51.0461 68.631 51.3049 68.3721 51.3049 68.0527V63.726H88.4659V83.1285C88.4659 84.1261 87.6543 84.9377 86.6567 84.9377H81.5946C81.2751 84.9377 81.0163 85.1965 81.0163 85.5159C81.0163 85.8353 81.2751 86.0941 81.5946 86.0941H86.6567C88.2919 86.0941 89.6223 84.7637 89.6223 83.1285V58.9466C89.6223 57.3114 88.2919 55.981 86.6567 55.981V55.981Z" fill="#333333" stroke="black" stroke-width="0.3"/>
<path d="M53.9785 59.8538C53.9785 60.4453 54.4581 60.9249 55.0496 60.9249C55.641 60.9249 56.1206 60.4453 56.1206 59.8538C56.1206 59.2622 55.641 58.7827 55.0496 58.7827C54.4581 58.7827 53.9785 59.2622 53.9785 59.8538V59.8538Z" fill="#333333" stroke="black" stroke-width="0.3"/>
<path d="M57.2754 59.8538C57.2754 60.4453 57.7549 60.9249 58.3464 60.9249C58.9379 60.9249 59.4175 60.4453 59.4175 59.8538C59.4175 59.2622 58.9379 58.7827 58.3464 58.7827C57.7549 58.7827 57.2754 59.2622 57.2754 59.8538Z" fill="#333333" stroke="black" stroke-width="0.3"/>
<path d="M60.5703 59.8538C60.5703 60.4453 61.0499 60.9249 61.6414 60.9249C62.2328 60.9249 62.7124 60.4453 62.7124 59.8538C62.7124 59.2622 62.2328 58.7827 61.6414 58.7827C61.0499 58.7827 60.5703 59.2622 60.5703 59.8538Z" fill="#333333" stroke="black" stroke-width="0.3"/>
<path d="M57.2244 76.4562H57.2277C57.4721 76.4562 57.6903 76.3024 57.7723 76.0721L59.2046 72.0528L60.5733 76.0648C60.6528 76.298 60.8716 76.4552 61.1181 76.4563H61.1205C61.3661 76.4563 61.5849 76.3011 61.6662 76.0692L63.6078 70.5301C63.7134 70.2288 63.5548 69.8988 63.2533 69.7931C62.9522 69.6875 62.622 69.8462 62.5163 70.1476L61.1278 74.1088L59.7638 70.1101C59.6092 69.602 58.8331 69.5973 58.6719 70.1027L57.2376 74.1276L55.8732 70.1573C55.7695 69.8552 55.4406 69.6943 55.1385 69.7984C54.8365 69.9022 54.6758 70.2312 54.7796 70.5332L56.6808 76.0658C56.7606 76.2982 56.9787 76.4547 57.2244 76.4562V76.4562Z" fill="#333333" stroke="black" stroke-width="0.3"/>
<path d="M67.9256 76.4562H67.9289C68.1733 76.4562 68.3915 76.3025 68.4735 76.0721L69.9058 72.0529L71.2744 76.0648C71.354 76.298 71.5728 76.4552 71.8193 76.4563H71.8217C72.0672 76.4563 72.286 76.3012 72.3674 76.0693L74.309 70.5301C74.4146 70.2288 74.2559 69.8988 73.9545 69.7931C73.6534 69.6875 73.3232 69.8462 73.2175 70.1476L71.829 74.1088L70.465 70.1102C70.3103 69.6019 69.5343 69.5973 69.3731 70.1028L67.9387 74.1276L66.5744 70.1574C66.4706 69.8554 66.1416 69.6945 65.8397 69.7985C65.5377 69.9023 65.3769 70.2313 65.4808 70.5333L67.382 76.0659C67.4619 76.2982 67.6799 76.4547 67.9256 76.4562V76.4562Z" fill="#333333" stroke="black" stroke-width="0.3"/>
<path d="M78.4472 76.4562H78.4504C78.6948 76.4562 78.913 76.3024 78.995 76.0721L80.4274 72.0528L81.796 76.0648C81.8756 76.298 82.0944 76.4552 82.3408 76.4563H82.3432C82.5888 76.4563 82.8076 76.3011 82.8889 76.0692L84.8305 70.5301C84.9361 70.2288 84.7774 69.8988 84.476 69.7931C84.1748 69.6875 83.8447 69.8462 83.739 70.1476L82.3506 74.1088L80.9865 70.1101C80.832 69.602 80.0558 69.5973 79.8946 70.1027L78.4603 74.1276L77.0959 70.1574C76.9921 69.8554 76.6636 69.6946 76.3612 69.7985C76.0592 69.9023 75.8984 70.2313 76.0023 70.5332L77.9036 76.0659C77.9834 76.2982 78.2014 76.4547 78.4472 76.4562V76.4562Z" fill="#333333" stroke="black" stroke-width="0.3"/>
<defs>
<filter id="filter0_d_164_12" x="0" y="0" width="139" height="153" filterUnits="userSpaceOnUse" color-interpolation-filters="sRGB">
<feFlood flood-opacity="0" result="BackgroundImageFix"/>
<feColorMatrix in="SourceAlpha" type="matrix" values="0 0 0 0 0 0 0 0 0 0 0 0 0 0 0 0 0 0 127 0" result="hardAlpha"/>
<feOffset dy="4"/>
<feGaussianBlur stdDeviation="10"/>
<feComposite in2="hardAlpha" operator="out"/>
<feColorMatrix type="matrix" values="0 0 0 0 0 0 0 0 0 0 0 0 0 0 0 0 0 0 0.2 0"/>
<feBlend mode="normal" in2="BackgroundImageFix" result="effect1_dropShadow_164_12"/>
<feBlend mode="normal" in="SourceGraphic" in2="effect1_dropShadow_164_12" result="shape"/>
</filter>
</defs>
</svg>
